<svg width="39" height="36" viewBox="0 0 39 36" fill="none" xmlns="http://www.w3.org/2000/svg">
<g filter="url(#filter0_d_194_286)">
<path d="M20.1721 4.81672C19.9853 5.15022 19.8181 5.49574 19.6716 5.85182H8.25586L8.10474 5.85384C4.93877 5.93409 2.39689 8.52852 2.39686 11.7174V25.9486C2.39686 29.188 5.02002 31.8141 8.25586 31.8141H22.9121C26.148 31.8141 28.7711 29.188 28.7711 25.9486V19.1349C29.1204 19.1349 29.4653 19.1163 29.8051 19.0813V25.9486C29.8051 29.7597 26.719 32.8492 22.9121 32.8492H8.25586C4.44899 32.8492 1.36292 29.7597 1.36292 25.9486V11.7174C1.36295 7.90627 4.44901 4.81672 8.25586 4.81672H20.1721Z" fill="url(#paint0_linear_194_286)"/>
<path d="M27.504 4.22382L27.9797 5.54626C28.5081 7.01399 29.6626 8.1698 31.1287 8.69877L32.4496 9.17497C32.5687 9.21826 32.5687 9.38727 32.4496 9.42997L31.1287 9.90617C29.6626 10.4351 28.5081 11.5909 27.9797 13.0587L27.504 14.3811C27.4608 14.5003 27.2919 14.5003 27.2493 14.3811L26.7736 13.0587C26.2452 11.5909 25.0907 10.4351 23.6246 9.90617L22.3037 9.42997C22.1846 9.38668 22.1846 9.21767 22.3037 9.17497L23.6246 8.69877C25.0907 8.1698 26.2452 7.01399 26.7736 5.54626L27.2493 4.22382C27.2919 4.10403 27.4608 4.10403 27.504 4.22382Z" fill="url(#paint1_linear_194_286)"/>
<path d="M33.4502 1.04581L33.6913 1.71533C33.959 2.45839 34.5437 3.04371 35.2859 3.31175L35.9547 3.55311C36.0151 3.57505 36.0151 3.66045 35.9547 3.68239L35.2859 3.92375C34.5437 4.1918 33.959 4.77711 33.6913 5.52017L33.4502 6.18969C33.4283 6.25018 33.343 6.25018 33.3211 6.18969L33.08 5.52017C32.8122 4.77711 32.2276 4.1918 31.4853 3.92375L30.8166 3.68239C30.7561 3.66045 30.7561 3.57505 30.8166 3.55311L31.4853 3.31175C32.2276 3.04371 32.8122 2.45839 33.08 1.71533L33.3211 1.04581C33.343 0.98473 33.4289 0.98473 33.4502 1.04581Z" fill="url(#paint2_linear_194_286)"/>
<path d="M33.4502 12.4158L33.6913 13.0854C33.959 13.8284 34.5437 14.4137 35.2859 14.6818L35.9547 14.9231C36.0151 14.9451 36.0151 15.0305 35.9547 15.0524L35.2859 15.2938C34.5437 15.5618 33.959 16.1471 33.6913 16.8902L33.4502 17.5597C33.4283 17.6202 33.343 17.6202 33.3211 17.5597L33.08 16.8902C32.8122 16.1471 32.2276 15.5618 31.4853 15.2938L30.8166 15.0524C30.7561 15.0305 30.7561 14.9451 30.8166 14.9231L31.4853 14.6818C32.2276 14.4137 32.8122 13.8284 33.08 13.0854L33.3211 12.4158C33.343 12.3554 33.4289 12.3554 33.4502 12.4158Z" fill="url(#paint3_linear_194_286)"/>
<path d="M17.6823 21.1433H20.5648L22.0139 23.0096L23.4394 24.6721L26.1261 28.044H22.9616L21.1131 25.7699L20.1653 24.4211L17.6823 21.1433ZM26.3689 18.6967C26.3689 20.448 26.0374 21.9379 25.3742 23.1665C24.7162 24.395 23.818 25.3334 22.6797 25.9816C21.5465 26.6246 20.2723 26.9461 18.8572 26.9461C17.4316 26.9461 16.1522 26.622 15.0191 25.9738C13.8859 25.3255 12.9904 24.3872 12.3324 23.1586C11.6744 21.9301 11.3455 20.4428 11.3455 18.6967C11.3455 16.9454 11.6744 15.4555 12.3324 14.227C12.9904 12.9985 13.8859 12.0627 15.0191 11.4197C16.1522 10.7715 17.4316 10.4473 18.8572 10.4473C20.2723 10.4473 21.5465 10.7715 22.6797 11.4197C23.818 12.0627 24.7162 12.9985 25.3742 14.227C26.0374 15.4555 26.3689 16.9454 26.3689 18.6967ZM22.9303 18.6967C22.9303 17.5623 22.7606 16.6056 22.4212 15.8267C22.087 15.0478 21.6144 14.457 21.0034 14.0545C20.3925 13.652 19.677 13.4507 18.8572 13.4507C18.0374 13.4507 17.322 13.652 16.711 14.0545C16.1 14.457 15.6248 15.0478 15.2854 15.8267C14.9512 16.6056 14.7841 17.5623 14.7841 18.6967C14.7841 19.8312 14.9512 20.7878 15.2854 21.5668C15.6248 22.3457 16.1 22.9365 16.711 23.339C17.322 23.7415 18.0374 23.9428 18.8572 23.9428C19.677 23.9428 20.3925 23.7415 21.0034 23.339C21.6144 22.9365 22.087 22.3457 22.4212 21.5668C22.7606 20.7878 22.9303 19.8312 22.9303 18.6967Z" fill="url(#paint4_linear_194_286)"/>
<path d="M9.93986 10.6669V26.7266H6.54822V10.6669H9.93986Z" fill="url(#paint5_linear_194_286)"/>
</g>
<defs>
<filter id="filter0_d_194_286" x="0.462915" y="0.1" width="38.4371" height="35.6492" filterUnits="userSpaceOnUse" color-interpolation-filters="sRGB">
<feFlood flood-opacity="0" result="BackgroundImageFix"/>
<feColorMatrix in="SourceAlpha" type="matrix" values="0 0 0 0 0 0 0 0 0 0 0 0 0 0 0 0 0 0 127 0" result="hardAlpha"/>
<feOffset dx="1" dy="1"/>
<feGaussianBlur stdDeviation="0.95"/>
<feComposite in2="hardAlpha" operator="out"/>
<feColorMatrix type="matrix" values="0 0 0 0 0 0 0 0 0 0 0 0 0 0 0 0 0 0 0.25 0"/>
<feBlend mode="normal" in2="BackgroundImageFix" result="effect1_dropShadow_194_286"/>
<feBlend mode="normal" in="SourceGraphic" in2="effect1_dropShadow_194_286" result="shape"/>
</filter>
<linearGradient id="paint0_linear_194_286" x1="3.06095" y1="31.56" x2="33.1177" y2="8.28786" gradientUnits="userSpaceOnUse">
<stop stop-color="#FF7B00"/>
<stop offset="1" stop-color="#FFEA00"/>
</linearGradient>
<linearGradient id="paint1_linear_194_286" x1="22.8307" y1="13.9952" x2="33.8691" y2="5.58133" gradientUnits="userSpaceOnUse">
<stop stop-color="#FF7B00"/>
<stop offset="1" stop-color="#FFEA00"/>
</linearGradient>
<linearGradient id="paint2_linear_194_286" x1="31.0834" y1="5.99431" x2="36.6738" y2="1.73326" gradientUnits="userSpaceOnUse">
<stop stop-color="#FF7B00"/>
<stop offset="1" stop-color="#FFEA00"/>
</linearGradient>
<linearGradient id="paint3_linear_194_286" x1="31.0834" y1="17.3644" x2="36.6735" y2="13.1032" gradientUnits="userSpaceOnUse">
<stop stop-color="#FF7B00"/>
<stop offset="1" stop-color="#FFEA00"/>
</linearGradient>
<linearGradient id="paint4_linear_194_286" x1="6.49138" y1="30.3511" x2="33.0637" y2="13.0275" gradientUnits="userSpaceOnUse">
<stop stop-color="#FF7B00"/>
<stop offset="1" stop-color="#FFEA00"/>
</linearGradient>
<linearGradient id="paint5_linear_194_286" x1="6.4914" y1="30.3511" x2="33.0637" y2="13.0275" gradientUnits="userSpaceOnUse">
<stop stop-color="#FF7B00"/>
<stop offset="1" stop-color="#FFEA00"/>
</linearGradient>
</defs>
</svg>
