<svg width="35" height="33" viewBox="0 0 35 33" fill="none" xmlns="http://www.w3.org/2000/svg">
<g filter="url(#filter0_d_194_278)">
<path d="M19.1721 3.96753C18.9853 4.30102 18.8181 4.64654 18.6716 5.00262H7.25586L7.10474 5.00464C3.93877 5.08489 1.39689 7.67932 1.39686 10.8682V25.0994C1.39686 28.3388 4.02002 30.9649 7.25586 30.9649H21.9121C25.148 30.9649 27.7711 28.3388 27.7711 25.0994V18.2857C28.1204 18.2857 28.4653 18.2671 28.8051 18.2321V25.0994C28.8051 28.9105 25.719 32 21.9121 32H7.25586C3.44899 32 0.362915 28.9105 0.362915 25.0994V10.8682C0.362949 7.05707 3.44901 3.96753 7.25586 3.96753H19.1721Z" fill="url(#paint0_linear_194_278)"/>
<path d="M26.504 3.37462L26.9797 4.69706C27.5081 6.1648 28.6626 7.3206 30.1287 7.84958L31.4496 8.32577C31.5687 8.36906 31.5687 8.53807 31.4496 8.58077L30.1287 9.05697C28.6626 9.58595 27.5081 10.7417 26.9797 12.2095L26.504 13.5319C26.4608 13.6511 26.2919 13.6511 26.2493 13.5319L25.7736 12.2095C25.2452 10.7417 24.0907 9.58595 22.6246 9.05697L21.3037 8.58077C21.1846 8.53748 21.1846 8.36847 21.3037 8.32577L22.6246 7.84958C24.0907 7.3206 25.2452 6.1648 25.7736 4.69706L26.2493 3.37462C26.2919 3.25483 26.4608 3.25483 26.504 3.37462Z" fill="url(#paint1_linear_194_278)"/>
<path d="M32.4502 0.196614L32.6913 0.866137C32.959 1.60919 33.5437 2.19451 34.2859 2.46256L34.9547 2.70392C35.0151 2.72586 35.0151 2.81125 34.9547 2.83319L34.2859 3.07455C33.5437 3.3426 32.959 3.92792 32.6913 4.67097L32.4502 5.3405C32.4283 5.40098 32.343 5.40098 32.3211 5.3405L32.08 4.67097C31.8122 3.92792 31.2276 3.3426 30.4853 3.07455L29.8166 2.83319C29.7561 2.81125 29.7561 2.72586 29.8166 2.70392L30.4853 2.46256C31.2276 2.19451 31.8122 1.60919 32.08 0.866137L32.3211 0.196614C32.343 0.135532 32.4289 0.135532 32.4502 0.196614Z" fill="url(#paint2_linear_194_278)"/>
<path d="M32.4502 11.5666L32.6913 12.2362C32.959 12.9792 33.5437 13.5645 34.2859 13.8326L34.9547 14.0739C35.0151 14.0959 35.0151 14.1813 34.9547 14.2032L34.2859 14.4446C33.5437 14.7126 32.959 15.2979 32.6913 16.041L32.4502 16.7105C32.4283 16.771 32.343 16.771 32.3211 16.7105L32.08 16.041C31.8122 15.2979 31.2276 14.7126 30.4853 14.4446L29.8166 14.2032C29.7561 14.1813 29.7561 14.0959 29.8166 14.0739L30.4853 13.8326C31.2276 13.5645 31.8122 12.9792 32.08 12.2362L32.3211 11.5666C32.343 11.5062 32.4289 11.5062 32.4502 11.5666Z" fill="url(#paint3_linear_194_278)"/>
<path d="M16.6823 20.2941H19.5648L21.0139 22.1604L22.4394 23.8229L25.1261 27.1948H21.9616L20.1131 24.9207L19.1653 23.5719L16.6823 20.2941ZM25.3689 17.8475C25.3689 19.5988 25.0374 21.0888 24.3742 22.3173C23.7162 23.5458 22.818 24.4842 21.6797 25.1324C20.5465 25.7754 19.2723 26.0969 17.8572 26.0969C16.4316 26.0969 15.1522 25.7728 14.0191 25.1246C12.8859 24.4763 11.9904 23.538 11.3324 22.3094C10.6744 21.0809 10.3455 19.5936 10.3455 17.8475C10.3455 16.0962 10.6744 14.6063 11.3324 13.3778C11.9904 12.1493 12.8859 11.2135 14.0191 10.5705C15.1522 9.92227 16.4316 9.59815 17.8572 9.59815C19.2723 9.59815 20.5465 9.92227 21.6797 10.5705C22.818 11.2135 23.7162 12.1493 24.3742 13.3778C25.0374 14.6063 25.3689 16.0962 25.3689 17.8475ZM21.9303 17.8475C21.9303 16.7131 21.7606 15.7564 21.4212 14.9775C21.087 14.1986 20.6144 13.6078 20.0034 13.2053C19.3925 12.8028 18.677 12.6015 17.8572 12.6015C17.0374 12.6015 16.322 12.8028 15.711 13.2053C15.1 13.6078 14.6248 14.1986 14.2854 14.9775C13.9512 15.7564 13.7841 16.7131 13.7841 17.8475C13.7841 18.982 13.9512 19.9386 14.2854 20.7176C14.6248 21.4965 15.1 22.0873 15.711 22.4898C16.322 22.8923 17.0374 23.0936 17.8572 23.0936C18.677 23.0936 19.3925 22.8923 20.0034 22.4898C20.6144 22.0873 21.087 21.4965 21.4212 20.7176C21.7606 19.9386 21.9303 18.982 21.9303 17.8475Z" fill="url(#paint4_linear_194_278)"/>
<path d="M8.93986 9.81771V25.8774H5.54822V9.81771H8.93986Z" fill="url(#paint5_linear_194_278)"/>
</g>
<defs>
<filter id="filter0_d_194_278" x="0.362915" y="0.150803" width="34.6371" height="32.8492" filterUnits="userSpaceOnUse" color-interpolation-filters="sRGB">
<feFlood flood-opacity="0" result="BackgroundImageFix"/>
<feColorMatrix in="SourceAlpha" type="matrix" values="0 0 0 0 0 0 0 0 0 0 0 0 0 0 0 0 0 0 127 0" result="hardAlpha"/>
<feOffset dy="1"/>
<feComposite in2="hardAlpha" operator="out"/>
<feColorMatrix type="matrix" values="0 0 0 0 0 0 0 0 0 0 0 0 0 0 0 0 0 0 0.25 0"/>
<feBlend mode="normal" in2="BackgroundImageFix" result="effect1_dropShadow_194_278"/>
<feBlend mode="normal" in="SourceGraphic" in2="effect1_dropShadow_194_278" result="shape"/>
</filter>
<linearGradient id="paint0_linear_194_278" x1="2.06095" y1="30.7108" x2="32.1177" y2="7.43866" gradientUnits="userSpaceOnUse">
<stop stop-color="#6A60F0"/>
<stop offset="1" stop-color="#7FE4B4"/>
</linearGradient>
<linearGradient id="paint1_linear_194_278" x1="21.8307" y1="13.146" x2="32.8691" y2="4.73213" gradientUnits="userSpaceOnUse">
<stop stop-color="#6A60F0"/>
<stop offset="1" stop-color="#7FE4B4"/>
</linearGradient>
<linearGradient id="paint2_linear_194_278" x1="30.0834" y1="5.14511" x2="35.6738" y2="0.884061" gradientUnits="userSpaceOnUse">
<stop stop-color="#6A60F0"/>
<stop offset="1" stop-color="#7FE4B4"/>
</linearGradient>
<linearGradient id="paint3_linear_194_278" x1="30.0834" y1="16.5152" x2="35.6735" y2="12.254" gradientUnits="userSpaceOnUse">
<stop stop-color="#6A60F0"/>
<stop offset="1" stop-color="#7FE4B4"/>
</linearGradient>
<linearGradient id="paint4_linear_194_278" x1="5.49138" y1="29.5019" x2="32.0637" y2="12.1783" gradientUnits="userSpaceOnUse">
<stop stop-color="#6A60F0"/>
<stop offset="1" stop-color="#7FE4B4"/>
</linearGradient>
<linearGradient id="paint5_linear_194_278" x1="5.4914" y1="29.5019" x2="32.0637" y2="12.1783" gradientUnits="userSpaceOnUse">
<stop stop-color="#6A60F0"/>
<stop offset="1" stop-color="#7FE4B4"/>
</linearGradient>
</defs>
</svg>
