<svg width="32" height="32" viewBox="0 0 32 32" fill="none" xmlns="http://www.w3.org/2000/svg">
<path d="M5.33337 18.6667V14.6667C5.33337 11.8377 6.45718 9.12458 8.45757 7.12419C10.458 5.12381 13.1711 4 16 4C18.829 4 21.5421 5.12381 23.5425 7.12419C25.5429 9.12458 26.6667 11.8377 26.6667 14.6667V18.6667M5.33337 18.6667C5.33337 17.9594 5.61433 17.2811 6.11442 16.781C6.61452 16.281 7.2928 16 8.00004 16H9.33337C10.0406 16 10.7189 16.281 11.219 16.781C11.7191 17.2811 12 17.9594 12 18.6667V22.6667C12 23.3739 11.7191 24.0522 11.219 24.5523C10.7189 25.0524 10.0406 25.3333 9.33337 25.3333H8.00004C7.2928 25.3333 6.61452 25.0524 6.11442 24.5523C5.61433 24.0522 5.33337 23.3739 5.33337 22.6667V18.6667ZM26.6667 18.6667C26.6667 17.9594 26.3858 17.2811 25.8857 16.781C25.3856 16.281 24.7073 16 24 16H22.6667C21.9595 16 21.2812 16.281 20.7811 16.781C20.281 17.2811 20 17.9594 20 18.6667V22.6667C20 23.3739 20.281 24.0522 20.7811 24.5523C21.2812 25.0524 21.9595 25.3333 22.6667 25.3333H24M26.6667 18.6667V22.6667C26.6667 23.3739 26.3858 24.0522 25.8857 24.5523C25.3856 25.0524 24.7073 25.3333 24 25.3333M24 25.3333C24 27.5427 20.4187 29.3333 16 29.3333" stroke="white" stroke-width="2" stroke-linecap="round" stroke-linejoin="round"/>
</svg>
