<svg width="33" height="32" viewBox="0 0 33 32" fill="none" xmlns="http://www.w3.org/2000/svg">
<path d="M7.2441 24.408L11.0841 18.2667M13.9147 13.7374L17.7507 7.59871M13.9199 18.2734L17.7545 24.4067M20.5839 7.60002L24.4253 13.7467M8.49996 26.6667C8.49996 25.9595 8.21901 25.2812 7.71891 24.7811C7.21881 24.281 6.54054 24.0001 5.83329 24.0001C5.12605 24.0001 4.44777 24.281 3.94767 24.7811C3.44758 25.2812 3.16663 25.9595 3.16663 26.6667C3.16663 27.374 3.44758 28.0523 3.94767 28.5524C4.44777 29.0525 5.12605 29.3334 5.83329 29.3334C6.54054 29.3334 7.21881 29.0525 7.71891 28.5524C8.21901 28.0523 8.49996 27.374 8.49996 26.6667ZM21.8333 5.33341C21.8333 4.62617 21.5523 3.94789 21.0522 3.4478C20.5521 2.9477 19.8739 2.66675 19.1666 2.66675C18.4594 2.66675 17.7811 2.9477 17.281 3.4478C16.7809 3.94789 16.5 4.62617 16.5 5.33341C16.5 6.04066 16.7809 6.71894 17.281 7.21903C17.7811 7.71913 18.4594 8.00008 19.1666 8.00008C19.8739 8.00008 20.5521 7.71913 21.0522 7.21903C21.5523 6.71894 21.8333 6.04066 21.8333 5.33341ZM21.8333 26.6667C21.8333 25.9595 21.5523 25.2812 21.0522 24.7811C20.5521 24.281 19.8739 24.0001 19.1666 24.0001C18.4594 24.0001 17.7811 24.281 17.281 24.7811C16.7809 25.2812 16.5 25.9595 16.5 26.6667C16.5 27.374 16.7809 28.0523 17.281 28.5524C17.7811 29.0525 18.4594 29.3334 19.1666 29.3334C19.8739 29.3334 20.5521 29.0525 21.0522 28.5524C21.5523 28.0523 21.8333 27.374 21.8333 26.6667ZM15.1666 16.0001C15.1666 15.2928 14.8857 14.6146 14.3856 14.1145C13.8855 13.6144 13.2072 13.3334 12.5 13.3334C11.7927 13.3334 11.1144 13.6144 10.6143 14.1145C10.1142 14.6146 9.83329 15.2928 9.83329 16.0001C9.83329 16.7073 10.1142 17.3856 10.6143 17.8857C11.1144 18.3858 11.7927 18.6667 12.5 18.6667C13.2072 18.6667 13.8855 18.3858 14.3856 17.8857C14.8857 17.3856 15.1666 16.7073 15.1666 16.0001ZM28.5 16.0001C28.5 15.2928 28.219 14.6146 27.7189 14.1145C27.2188 13.6144 26.5405 13.3334 25.8333 13.3334C25.126 13.3334 24.4478 13.6144 23.9477 14.1145C23.4476 14.6146 23.1666 15.2928 23.1666 16.0001C23.1666 16.7073 23.4476 17.3856 23.9477 17.8857C24.4478 18.3858 25.126 18.6667 25.8333 18.6667C26.5405 18.6667 27.2188 18.3858 27.7189 17.8857C28.219 17.3856 28.5 16.7073 28.5 16.0001Z" stroke="#F6881E" stroke-width="2" stroke-linecap="round" stroke-linejoin="round"/>
</svg>
