<svg width="33" height="32" viewBox="0 0 33 32" fill="none" xmlns="http://www.w3.org/2000/svg">
<path d="M9.37596 21.3332C5.94663 21.3332 3.16663 18.6572 3.16663 15.3558C3.16663 12.0558 5.94663 9.37985 9.37596 9.37985C9.89996 7.03051 11.768 5.11318 14.276 4.34918C16.7826 3.58651 19.5506 4.09185 21.5346 5.68251C23.5186 7.26918 24.4173 9.69185 23.8946 12.0412H25.2146C27.7653 12.0412 29.8333 14.1212 29.8333 16.6892C29.8333 19.2585 27.7653 21.3385 25.2133 21.3385H9.37596M16.5 21.3332V27.9998M21.8333 21.3332V26.6665C21.8333 27.0201 21.9738 27.3593 22.2238 27.6093C22.4739 27.8594 22.813 27.9998 23.1666 27.9998H28.5M11.1666 21.3332V26.6665C11.1666 27.0201 11.0262 27.3593 10.7761 27.6093C10.5261 27.8594 10.1869 27.9998 9.83329 27.9998H4.49996" stroke="#F6881E" stroke-width="2" stroke-linecap="round" stroke-linejoin="round"/>
</svg>
