<svg width="94" height="22" viewBox="0 0 94 22" fill="none" xmlns="http://www.w3.org/2000/svg">
<path d="M83.9532 21.3945C83.5302 21.3945 83.1333 21.3605 82.7626 21.2926C82.397 21.2299 82.0942 21.1488 81.8539 21.0495L82.6059 18.5559C82.9976 18.6761 83.35 18.7414 83.6633 18.7519C83.9819 18.7624 84.256 18.6892 84.4858 18.5323C84.7208 18.3755 84.9114 18.1089 85.0576 17.7325L85.2534 17.2228L80.9375 4.83301H84.4466L86.9375 13.6784H87.0628L89.5772 4.83301H93.1098L88.4336 18.1795C88.209 18.8277 87.9036 19.3923 87.5171 19.8732C87.1359 20.3594 86.6529 20.7332 86.068 20.9946C85.4832 21.2612 84.7782 21.3945 83.9532 21.3945Z" fill="white"/>
<path d="M80.6018 4.83298V7.34231H73.3563V4.83298H80.6018ZM75.0012 1.94727H78.338V13.1765C78.338 13.4849 78.385 13.7254 78.479 13.8979C78.573 14.0652 78.7036 14.1828 78.8707 14.2508C79.043 14.3187 79.2414 14.3527 79.466 14.3527C79.6226 14.3527 79.7793 14.3397 79.936 14.3135C80.0926 14.2821 80.2127 14.2586 80.2963 14.2429L80.8211 16.7287C80.654 16.781 80.419 16.8411 80.1161 16.9091C79.8132 16.9823 79.4451 17.0267 79.0117 17.0424C78.2075 17.0738 77.5025 16.9666 76.8968 16.7209C76.2963 16.4752 75.8289 16.0936 75.4947 15.576C75.1605 15.0585 74.996 14.405 75.0012 13.6156V1.94727Z" fill="white"/>
<path d="M64.7001 9.91399V16.8774H61.3633V4.83261H64.5434V6.9577H64.6844C64.9507 6.25718 65.3972 5.70303 66.0239 5.29527C66.6505 4.88228 67.4103 4.67578 68.3032 4.67578C69.1387 4.67578 69.8672 4.85875 70.4886 5.22469C71.11 5.59064 71.593 6.11341 71.9377 6.79302C72.2823 7.4674 72.4547 8.27248 72.4547 9.20824V16.8774H69.1178V9.80421C69.1231 9.06709 68.9351 8.49204 68.5539 8.07905C68.1727 7.66083 67.6479 7.45172 66.9795 7.45172C66.5304 7.45172 66.1335 7.54843 65.7889 7.74186C65.4494 7.93529 65.1831 8.21758 64.9899 8.58875C64.8019 8.9547 64.7053 9.39644 64.7001 9.91399Z" fill="white"/>
<path d="M52.8814 17.1048C52.1137 17.1048 51.4297 16.9715 50.8292 16.7048C50.2286 16.433 49.7534 16.0331 49.4036 15.5051C49.0589 14.9718 48.8866 14.3079 48.8866 13.5133C48.8866 12.8441 49.0093 12.2822 49.2547 11.8273C49.5002 11.3725 49.8344 11.0066 50.2574 10.7295C50.6803 10.4524 51.1607 10.2433 51.6986 10.1022C52.2417 9.96104 52.8109 9.86171 53.4062 9.80421C54.1059 9.73102 54.6699 9.66306 55.0981 9.60032C55.5263 9.53236 55.837 9.43304 56.0302 9.30234C56.2234 9.17165 56.32 8.97822 56.32 8.72206V8.67501C56.32 8.17838 56.1634 7.79413 55.85 7.52229C55.5419 7.25045 55.1033 7.11453 54.5341 7.11453C53.9336 7.11453 53.4558 7.24783 53.1007 7.51445C52.7456 7.77584 52.5106 8.10519 52.3957 8.5025L49.3096 8.25156C49.4662 7.51968 49.7743 6.88712 50.2339 6.35389C50.6934 5.81543 51.2861 5.40244 52.0119 5.11491C52.743 4.82216 53.5889 4.67578 54.5498 4.67578C55.2182 4.67578 55.8579 4.7542 56.4688 4.91103C57.085 5.06786 57.6307 5.31095 58.1059 5.6403C58.5863 5.96965 58.9649 6.3931 59.2417 6.91065C59.5184 7.42296 59.6568 8.03723 59.6568 8.75343V16.8774H56.4923V15.2071H56.3983C56.2051 15.5835 55.9466 15.9154 55.6229 16.203C55.2991 16.4853 54.9101 16.7075 54.4558 16.8695C54.0015 17.0263 53.4767 17.1048 52.8814 17.1048ZM53.837 14.7993C54.3278 14.7993 54.7613 14.7026 55.1372 14.5092C55.5132 14.3105 55.8083 14.0439 56.0224 13.7093C56.2365 13.3748 56.3435 12.9957 56.3435 12.5723V11.2941C56.2391 11.3621 56.0955 11.4248 55.9127 11.4823C55.7352 11.5346 55.5341 11.5843 55.3096 11.6313C55.085 11.6731 54.8605 11.7123 54.6359 11.7489C54.4114 11.7803 54.2077 11.809 54.025 11.8352C53.6333 11.8927 53.2913 11.9842 52.9989 12.1096C52.7064 12.2351 52.4793 12.405 52.3174 12.6194C52.1555 12.8285 52.0746 13.0898 52.0746 13.4035C52.0746 13.8583 52.2391 14.206 52.5681 14.4464C52.9023 14.6817 53.3252 14.7993 53.837 14.7993Z" fill="white"/>
<path d="M41.652 16.8774V4.83267H44.887V6.93423H45.0123C45.2316 6.18666 45.5998 5.62206 46.1167 5.24044C46.6337 4.85358 47.229 4.66016 47.9026 4.66016C48.0697 4.66016 48.2499 4.67061 48.4431 4.69152C48.6363 4.71243 48.806 4.74119 48.9522 4.77778V7.74192C48.7956 7.69487 48.5789 7.65304 48.3021 7.61645C48.0253 7.57986 47.7721 7.56156 47.5423 7.56156C47.0515 7.56156 46.6128 7.66873 46.2264 7.88306C45.8452 8.09217 45.5423 8.38493 45.3178 8.76133C45.0985 9.13773 44.9888 9.57163 44.9888 10.063V16.8774H41.652Z" fill="white"/>
<path d="M33.5089 16.8774V4.83267H36.7439V6.93423H36.8692C37.0885 6.18666 37.4567 5.62206 37.9737 5.24044C38.4906 4.85358 39.0859 4.66016 39.7596 4.66016C39.9267 4.66016 40.1068 4.67061 40.3 4.69152C40.4932 4.71243 40.663 4.74119 40.8092 4.77778V7.74192C40.6525 7.69487 40.4358 7.65304 40.159 7.61645C39.8823 7.57986 39.629 7.56156 39.3992 7.56156C38.9084 7.56156 38.4697 7.66873 38.0833 7.88306C37.7021 8.09217 37.3992 8.38493 37.1747 8.76133C36.9554 9.13773 36.8457 9.57163 36.8457 10.063V16.8774H33.5089Z" fill="white"/>
<path d="M25.027 17.1048C24.2594 17.1048 23.5753 16.9715 22.9748 16.7048C22.3743 16.433 21.8991 16.0331 21.5492 15.5051C21.2046 14.9718 21.0322 14.3079 21.0322 13.5133C21.0322 12.8441 21.1549 12.2822 21.4004 11.8273C21.6458 11.3725 21.98 11.0066 22.403 10.7295C22.826 10.4524 23.3064 10.2433 23.8442 10.1022C24.3873 9.96104 24.9565 9.86171 25.5518 9.80421C26.2515 9.73102 26.8155 9.66306 27.2437 9.60032C27.6719 9.53236 27.9826 9.43304 28.1758 9.30234C28.369 9.17165 28.4656 8.97822 28.4656 8.72206V8.67501C28.4656 8.17838 28.309 7.79413 27.9957 7.52229C27.6876 7.25045 27.2489 7.11453 26.6797 7.11453C26.0792 7.11453 25.6014 7.24783 25.2463 7.51445C24.8912 7.77584 24.6562 8.10519 24.5414 8.5025L21.4552 8.25156C21.6119 7.51968 21.92 6.88712 22.3795 6.35389C22.839 5.81543 23.4317 5.40244 24.1576 5.11491C24.8886 4.82216 25.7346 4.67578 26.6954 4.67578C27.3638 4.67578 28.0035 4.7542 28.6145 4.91103C29.2307 5.06786 29.7763 5.31095 30.2515 5.6403C30.732 5.96965 31.1105 6.3931 31.3873 6.91065C31.6641 7.42296 31.8025 8.03723 31.8025 8.75343V16.8774H28.638V15.2071H28.544C28.3508 15.5835 28.0923 15.9154 27.7685 16.203C27.4448 16.4853 27.0557 16.7075 26.6014 16.8695C26.1471 17.0263 25.6223 17.1048 25.027 17.1048ZM25.9826 14.7993C26.4735 14.7993 26.9069 14.7026 27.2829 14.5092C27.6589 14.3105 27.9539 14.0439 28.168 13.7093C28.3821 13.3748 28.4891 12.9957 28.4891 12.5723V11.2941C28.3847 11.3621 28.2411 11.4248 28.0583 11.4823C27.8808 11.5346 27.6797 11.5843 27.4552 11.6313C27.2307 11.6731 27.0061 11.7123 26.7816 11.7489C26.557 11.7803 26.3534 11.809 26.1706 11.8352C25.779 11.8927 25.4369 11.9842 25.1445 12.1096C24.8521 12.2351 24.6249 12.405 24.463 12.6194C24.3012 12.8285 24.2202 13.0898 24.2202 13.4035C24.2202 13.8583 24.3847 14.206 24.7137 14.4464C25.0479 14.6817 25.4709 14.7993 25.9826 14.7993Z" fill="white"/>
<path d="M4.59008 16.8775L0 0.817871H3.70496L6.36031 11.9765H6.49347L9.42297 0.817871H12.5953L15.517 12H15.658L18.3133 0.817871H22.0183L17.4282 16.8775H14.1227L11.0679 6.37758H10.9426L7.89556 16.8775H4.59008Z" fill="white"/>
</svg>
