<svg width="94" height="22" viewBox="0 0 94 22" fill="none" xmlns="http://www.w3.org/2000/svg">
<path d="M83.9532 21.3942C83.5302 21.3942 83.1333 21.3602 82.7626 21.2922C82.397 21.2295 82.0942 21.1484 81.8539 21.0491L82.6059 18.5555C82.9976 18.6757 83.35 18.7411 83.6633 18.7515C83.9819 18.762 84.256 18.6888 84.4858 18.532C84.7208 18.3751 84.9114 18.1085 85.0576 17.7321L85.2534 17.2224L80.9375 4.83263H84.4466L86.9375 13.678H87.0628L89.5772 4.83263H93.1098L88.4336 18.1791C88.209 18.8273 87.9036 19.3919 87.5171 19.8729C87.1359 20.3591 86.6529 20.7328 86.068 20.9942C85.4832 21.2608 84.7782 21.3942 83.9532 21.3942Z" fill="#202020"/>
<path d="M80.6018 4.83263V7.34196H73.3563V4.83263H80.6018ZM75.0012 1.94691H78.338V13.1761C78.338 13.4846 78.385 13.725 78.479 13.8976C78.573 14.0648 78.7036 14.1825 78.8707 14.2504C79.043 14.3184 79.2414 14.3524 79.466 14.3524C79.6226 14.3524 79.7793 14.3393 79.936 14.3132C80.0926 14.2818 80.2127 14.2583 80.2963 14.2426L80.8211 16.7284C80.654 16.7807 80.419 16.8408 80.1161 16.9087C79.8132 16.9819 79.4451 17.0264 79.0117 17.042C78.2075 17.0734 77.5025 16.9662 76.8968 16.7205C76.2963 16.4748 75.8289 16.0932 75.4947 15.5757C75.1605 15.0581 74.996 14.4046 75.0012 13.6153V1.94691Z" fill="#202020"/>
<path d="M64.7001 9.91401V16.8774H61.3633V4.83264H64.5434V6.95772H64.6844C64.9507 6.2572 65.3972 5.70306 66.0239 5.29529C66.6505 4.8823 67.4103 4.6758 68.3032 4.6758C69.1387 4.6758 69.8672 4.85878 70.4886 5.22472C71.11 5.59066 71.593 6.11344 71.9377 6.79304C72.2823 7.46742 72.4547 8.2725 72.4547 9.20827V16.8774H69.1178V9.80423C69.1231 9.06712 68.9351 8.49206 68.5539 8.07907C68.1727 7.66085 67.6479 7.45174 66.9795 7.45174C66.5304 7.45174 66.1335 7.54845 65.7889 7.74188C65.4494 7.93531 65.1831 8.21761 64.9899 8.58878C64.8019 8.95472 64.7053 9.39647 64.7001 9.91401Z" fill="#202020"/>
<path d="M52.8814 17.1048C52.1137 17.1048 51.4297 16.9715 50.8292 16.7049C50.2286 16.433 49.7534 16.0331 49.4036 15.5051C49.0589 14.9719 48.8866 14.3079 48.8866 13.5133C48.8866 12.8442 49.0093 12.2822 49.2547 11.8274C49.5002 11.3726 49.8344 11.0066 50.2574 10.7295C50.6803 10.4525 51.1607 10.2434 51.6986 10.1022C52.2417 9.96106 52.8109 9.86173 53.4062 9.80423C54.1059 9.73104 54.6699 9.66308 55.0981 9.60035C55.5263 9.53238 55.837 9.43306 56.0302 9.30237C56.2234 9.17167 56.32 8.97824 56.32 8.72208V8.67503C56.32 8.1784 56.1634 7.79416 55.85 7.52231C55.5419 7.25047 55.1033 7.11455 54.5341 7.11455C53.9336 7.11455 53.4558 7.24786 53.1007 7.51447C52.7456 7.77586 52.5106 8.10521 52.3957 8.50252L49.3096 8.25159C49.4662 7.5197 49.7743 6.88714 50.2339 6.35391C50.6934 5.81545 51.2861 5.40246 52.0119 5.11493C52.743 4.82218 53.5889 4.6758 54.5498 4.6758C55.2182 4.6758 55.8579 4.75422 56.4688 4.91105C57.085 5.06789 57.6307 5.31098 58.1059 5.64032C58.5863 5.96967 58.9649 6.39312 59.2417 6.91067C59.5184 7.42299 59.6568 8.03725 59.6568 8.75345V16.8774H56.4923V15.2071H56.3983C56.2051 15.5835 55.9466 15.9155 55.6229 16.203C55.2991 16.4853 54.9101 16.7075 54.4558 16.8695C54.0015 17.0264 53.4767 17.1048 52.8814 17.1048ZM53.837 14.7993C54.3278 14.7993 54.7613 14.7026 55.1372 14.5092C55.5132 14.3106 55.8083 14.0439 56.0224 13.7094C56.2365 13.3748 56.3435 12.9958 56.3435 12.5723V11.2941C56.2391 11.3621 56.0955 11.4248 55.9127 11.4823C55.7352 11.5346 55.5341 11.5843 55.3096 11.6313C55.085 11.6732 54.8605 11.7124 54.6359 11.749C54.4114 11.7803 54.2077 11.8091 54.025 11.8352C53.6333 11.8927 53.2913 11.9842 52.9989 12.1097C52.7064 12.2351 52.4793 12.405 52.3174 12.6194C52.1555 12.8285 52.0746 13.0899 52.0746 13.4035C52.0746 13.8583 52.2391 14.206 52.5681 14.4465C52.9023 14.6817 53.3252 14.7993 53.837 14.7993Z" fill="#202020"/>
<path d="M41.652 16.8774V4.83263H44.887V6.93419H45.0123C45.2316 6.18662 45.5998 5.62202 46.1167 5.2404C46.6337 4.85355 47.229 4.66012 47.9026 4.66012C48.0697 4.66012 48.2499 4.67057 48.4431 4.69148C48.6363 4.7124 48.806 4.74115 48.9522 4.77774V7.74188C48.7956 7.69483 48.5789 7.65301 48.3021 7.61641C48.0253 7.57982 47.7721 7.56152 47.5423 7.56152C47.0515 7.56152 46.6128 7.66869 46.2264 7.88303C45.8452 8.09214 45.5423 8.38489 45.3178 8.76129C45.0985 9.13769 44.9888 9.57159 44.9888 10.063V16.8774H41.652Z" fill="#202020"/>
<path d="M33.5089 16.8774V4.83263H36.7439V6.93419H36.8692C37.0885 6.18662 37.4567 5.62202 37.9737 5.2404C38.4906 4.85355 39.0859 4.66012 39.7596 4.66012C39.9267 4.66012 40.1068 4.67057 40.3 4.69148C40.4932 4.7124 40.663 4.74115 40.8092 4.77774V7.74188C40.6525 7.69483 40.4358 7.65301 40.159 7.61641C39.8823 7.57982 39.629 7.56152 39.3992 7.56152C38.9084 7.56152 38.4697 7.66869 38.0833 7.88303C37.7021 8.09214 37.3992 8.38489 37.1747 8.76129C36.9554 9.13769 36.8457 9.57159 36.8457 10.063V16.8774H33.5089Z" fill="#202020"/>
<path d="M25.0269 17.1048C24.2593 17.1048 23.5752 16.9715 22.9747 16.7049C22.3742 16.433 21.899 16.0331 21.5491 15.5051C21.2045 14.9719 21.0322 14.3079 21.0322 13.5133C21.0322 12.8442 21.1549 12.2822 21.4003 11.8274C21.6457 11.3726 21.9799 11.0066 22.4029 10.7295C22.8259 10.4525 23.3063 10.2434 23.8442 10.1022C24.3873 9.96106 24.9564 9.86173 25.5517 9.80423C26.2515 9.73104 26.8155 9.66308 27.2437 9.60035C27.6719 9.53238 27.9826 9.43306 28.1758 9.30237C28.369 9.17167 28.4656 8.97824 28.4656 8.72208V8.67503C28.4656 8.1784 28.3089 7.79416 27.9956 7.52231C27.6875 7.25047 27.2489 7.11455 26.6797 7.11455C26.0792 7.11455 25.6014 7.24786 25.2463 7.51447C24.8912 7.77586 24.6562 8.10521 24.5413 8.50252L21.4551 8.25159C21.6118 7.5197 21.9199 6.88714 22.3794 6.35391C22.839 5.81545 23.4316 5.40246 24.1575 5.11493C24.8886 4.82218 25.7345 4.6758 26.6953 4.6758C27.3638 4.6758 28.0034 4.75422 28.6144 4.91105C29.2306 5.06789 29.7763 5.31098 30.2515 5.64032C30.7319 5.96967 31.1105 6.39312 31.3872 6.91067C31.664 7.42299 31.8024 8.03725 31.8024 8.75345V16.8774H28.6379V15.2071H28.5439C28.3507 15.5835 28.0922 15.9155 27.7685 16.203C27.4447 16.4853 27.0557 16.7075 26.6014 16.8695C26.147 17.0264 25.6222 17.1048 25.0269 17.1048ZM25.9826 14.7993C26.4734 14.7993 26.9068 14.7026 27.2828 14.5092C27.6588 14.3106 27.9538 14.0439 28.1679 13.7094C28.382 13.3748 28.4891 12.9958 28.4891 12.5723V11.2941C28.3846 11.3621 28.241 11.4248 28.0583 11.4823C27.8807 11.5346 27.6797 11.5843 27.4551 11.6313C27.2306 11.6732 27.0061 11.7124 26.7815 11.749C26.557 11.7803 26.3533 11.8091 26.1705 11.8352C25.7789 11.8927 25.4369 11.9842 25.1444 12.1097C24.852 12.2351 24.6249 12.405 24.463 12.6194C24.3011 12.8285 24.2202 13.0899 24.2202 13.4035C24.2202 13.8583 24.3846 14.206 24.7136 14.4465C25.0478 14.6817 25.4708 14.7993 25.9826 14.7993Z" fill="#202020"/>
<path d="M4.59008 16.8774L0 0.817719H3.70496L6.36031 11.9764H6.49347L9.42297 0.817719H12.5953L15.517 11.9999H15.658L18.3133 0.817719H22.0183L17.4282 16.8774H14.1227L11.0679 6.37743H10.9426L7.89556 16.8774H4.59008Z" fill="#202020"/>
</svg>
